<?xml version="1.0"?>
<svg xmlns="http://www.w3.org/2000/svg" xmlns:xlink="http://www.w3.org/1999/xlink" version="1.1" id="Capa_1" x="0px" y="0px" viewBox="0 0 496 496" style="enable-background:new 0 0 496 496;" xml:space="preserve" width="512px" height="512px" class=""><g><g>
	<g>
		<path d="M320,407.952c-0.048,4.016-1.416,24.048-24,24.048c-22.584,0-23.952-20.032-24-24.048L264,408h-8c0,13.832,8.36,40,40,40    s40-26.168,40-40L320,407.952z" data-original="#000000" class="active-path" data-old_color="#cecccc" fill="#cecccc"/>
	</g>
</g><g>
	<g>
		<rect x="88" y="424" width="16" height="16" data-original="#000000" class="active-path" data-old_color="#cecccc" fill="#cecccc"/>
	</g>
</g><g>
	<g>
		
			<rect x="127.613" y="415.611" transform="matrix(0.7074 -0.7069 0.7069 0.7074 -259.7455 219.8251)" width="16.001" height="16.001" data-original="#000000" class="active-path" data-old_color="#cecccc" fill="#cecccc"/>
	</g>
</g><g>
	<g>
		
			<rect x="48.424" y="415.607" transform="matrix(0.7069 -0.7074 0.7074 0.7069 -283.1006 164.0891)" width="16.001" height="16.001" data-original="#000000" class="active-path" data-old_color="#cecccc" fill="#cecccc"/>
	</g>
</g><g>
	<g>
		<path d="M296,0C185.72,0,96,96.896,96,216c0,27.208,4.68,53.832,13.912,79.144l0.128-0.048    c7.688,30.416,22.696,58.632,44.28,82.248c0.392,2.224,0.752,4.456,1.248,6.656H0v16c0,52.936,43.064,96,96,96    c38.304,0,71.352-22.608,86.744-55.136C209.936,475.616,251.216,496,296,496c70.712,0,129.552-51.28,141.616-118.576    c21.616-23.632,36.648-51.88,44.344-82.328l0.128,0.048C491.32,269.832,496,243.208,496,216C496,96.896,406.28,0,296,0z M96,480    c-44.112,0-80-35.888-80-80h160C176,444.112,140.112,480,96,480z M424,261.816C412.264,248.472,395.12,240,376,240    c-35.288,0-64,28.712-64,64c0,35.288,28.712,64,64,64c19.12,0,36.264-8.472,48-21.808V352c0,70.576-57.424,128-128,128    c-43.32,0-82.96-21.456-106.776-57.496C190.976,415.272,192,407.76,192,400v-16h-19.88c-2.68-10.408-4.12-21.136-4.12-32v-5.808    C179.736,359.528,196.88,368,216,368c35.288,0,64-28.712,64-64c0-35.288-28.712-64-64-64c-19.12,0-36.264,8.472-48,21.808v-35.872    c23.84,4.504,85.792,12.008,145.024-15.584c48.92,19.888,92.208,17.576,110.976,15.112V261.816z M384,326.528    c6.776-2.416,12.112-7.752,14.528-14.528h24.752c-3.384,20.056-19.224,35.888-39.28,39.28L384,326.528L384,326.528z M353.472,296    H328.72c3.384-20.056,19.224-35.888,39.28-39.28v24.752C361.224,283.888,355.888,289.224,353.472,296z M368,326.528v24.752    c-20.056-3.384-35.888-19.224-39.28-39.28h24.752C355.888,318.776,361.224,324.112,368,326.528z M376,296c4.408,0,8,3.584,8,8    c0,4.416-3.592,8-8,8c-4.408,0-8-3.584-8-8C368,299.584,371.592,296,376,296z M398.528,296    c-2.416-6.776-7.752-12.112-14.528-14.528V256.72c20.056,3.384,35.888,19.224,39.28,39.28H398.528z M238.528,312h24.752    c-3.384,20.056-19.224,35.888-39.28,39.28v-24.752C230.776,324.112,236.112,318.776,238.528,312z M224,281.472V256.72    c20.056,3.384,35.888,19.224,39.28,39.28h-24.752C236.112,289.224,230.776,283.888,224,281.472z M216,312c-4.408,0-8-3.584-8-8    c0-4.416,3.592-8,8-8s8,3.584,8,8C224,308.416,220.408,312,216,312z M208,281.472c-6.776,2.416-12.112,7.752-14.528,14.528H168.72    c3.384-20.056,19.224-35.888,39.28-39.28V281.472z M193.472,312c2.416,6.776,7.752,12.112,14.528,14.528v24.752    c-20.056-3.384-35.888-19.224-39.28-39.28H193.472z M472,248c0,36.448-11.336,71.392-32,100.816V205.944l-9.8,2.256    c-0.728,0.168-73.216,16.152-146.376-30.928l-8.656,13.456c6.112,3.936,12.192,7.344,18.24,10.504    c-64.616,24.136-130.648,7.232-131.36,7.04L152,205.608v143.216c-20.664-29.432-32-64.368-32-100.816    c0-70.72,42.048-134.32,107.136-162.016l-6.264-14.72C169.24,93.248,131,135.976,113.928,187.304    C126.768,90.568,203.512,16,296,16c92.6,0,169.4,74.744,182.12,171.64c-8.76-26.472-23.104-50.976-42.744-71.696l-11.608,11.008    C454.872,159.768,472,202.76,472,248z" data-original="#000000" class="active-path" data-old_color="#cecccc" fill="#cecccc"/>
	</g>
</g><g>
	<g>
		<path d="M296,56c-20.52,0-40.712,3.216-60.024,9.576l5,15.192C258.664,74.952,277.184,72,296,72    c43.544,0,85.336,16.024,117.664,45.112l10.704-11.896C389.088,73.48,343.504,56,296,56z" data-original="#000000" class="active-path" data-old_color="#cecccc" fill="#cecccc"/>
	</g>
</g></g> </svg>
