<?xml version="1.0"?>
<svg xmlns="http://www.w3.org/2000/svg" xmlns:xlink="http://www.w3.org/1999/xlink" version="1.1" id="Capa_1" x="0px" y="0px" viewBox="0 0 512 512" style="enable-background:new 0 0 512 512;" xml:space="preserve" width="512px" height="512px" class=""><g><g>
	<g>
		<path d="M419.771,72.122c-0.009-0.01-0.06-0.065-0.068-0.075c-3.729-4.062-10.023-4.316-14.094-0.595    c-4.07,3.721-4.339,10.058-0.626,14.136c0.01,0.01,0.06,0.065,0.069,0.075c1.967,2.142,4.646,3.225,7.336,3.225    c2.412,0,4.833-0.871,6.757-2.63C423.215,82.537,423.484,76.2,419.771,72.122z" data-original="#000000" class="active-path" data-old_color="#cecccc" fill="#cecccc"/>
	</g>
</g><g>
	<g>
		<path d="M288.01,205.54c-1.86-1.86-4.43-2.93-7.07-2.93c-2.63,0-5.21,1.07-7.07,2.93c-1.86,1.86-2.93,4.44-2.93,7.07    s1.07,5.21,2.93,7.07s4.44,2.93,7.07,2.93c2.64,0,5.21-1.07,7.07-2.93c1.87-1.86,2.93-4.44,2.93-7.07S289.88,207.4,288.01,205.54z    " data-original="#000000" class="active-path" data-old_color="#cecccc" fill="#cecccc"/>
	</g>
</g><g>
	<g>
		<path d="M458,416h-11.006c-3.608-17.703-16.603-32.025-33.538-37.544C454.713,337.005,478,281.141,478,222    c0-43.273-12.459-85.213-36.03-121.285c-3.021-4.623-9.218-5.921-13.841-2.901c-4.623,3.021-5.922,9.218-2.901,13.841    C446.667,144.466,458,182.623,458,222c0,59.559-25.943,115.482-71.306,154h-49.776C392.215,346.827,430,288.747,430,222    c0-64.79-35.6-121.416-88.261-151.363c-0.571-0.401-1.172-0.738-1.797-1.006C315.036,55.856,286.42,48,256,48    c-95.944,0-174,78.056-174,174c0,51.7,22.673,98.197,58.589,130.095c0.136,0.154,0.267,0.311,0.414,0.458    c0.475,0.475,0.988,0.891,1.527,1.25c9.938,8.568,20.855,16.026,32.553,22.197h-49.776C79.943,337.482,54,281.559,54,222    c0-111.383,90.617-202,202-202c45.394,0,88.271,14.705,123.997,42.524c4.358,3.392,10.641,2.612,14.034-1.746    c3.393-4.358,2.611-10.641-1.746-14.034C353.014,16.164,305.888,0,256,0C196.702,0,140.953,23.092,99.022,65.022    C57.092,106.953,34,162.702,34,222c0,59.141,23.287,115.005,64.545,156.456c-16.935,5.519-29.93,19.84-33.538,37.544H54    c-11.028,0-20,8.972-20,20v26c0,27.57,22.43,50,50,50h344c27.57,0,50-22.43,50-50v-26C478,424.972,469.028,416,458,416z     M163.02,344.677l97.162-97.162c3.905-3.905,3.905-10.237,0-14.143c-3.905-3.905-10.237-3.904-14.143,0l-98.168,98.169    C119.57,303.601,102,264.816,102,222c0-84.916,69.084-154,154-154c22.483,0,43.855,4.845,63.131,13.543L197.003,203.67    c-3.905,3.905-3.905,10.237,0,14.143c1.953,1.953,4.512,2.929,7.071,2.929c2.559,0,5.119-0.976,7.071-2.929L337.541,91.418    C381.022,118.667,410,167.009,410,222c0,84.916-69.084,154-154,154C221.097,376,188.875,364.322,163.02,344.677z M114,396h7.683    h268.635H398c13.038,0,24.159,8.359,28.287,20H85.713C89.841,404.359,100.962,396,114,396z M458,462c0,16.542-13.458,30-30,30H84    c-16.542,0-30-13.458-30-30v-26h20h364h20V462z" data-original="#000000" class="active-path" data-old_color="#cecccc" fill="#cecccc"/>
	</g>
</g></g> </svg>
