<?xml version="1.0"?>
<svg xmlns="http://www.w3.org/2000/svg" height="512px" viewBox="-16 0 512 512" width="512px"><g><path d="m472.421875 48.09375h-56.109375c-4.152344 0-7.515625 3.363281-7.515625 7.515625 0 4.148437 3.363281 7.515625 7.515625 7.515625h56.109375c4.152344 0 7.515625-3.367188 7.515625-7.515625 0-4.152344-3.363281-7.515625-7.515625-7.515625zm0 0" data-original="#000000" class="active-path" data-old_color="#cecccc" fill="#cecccc"/><path d="m440.359375 288.5625h-16.53125v-8.515625c0-48.34375-39.328125-87.671875-87.671875-87.671875h-56.609375v-24.546875c0-4.152344-3.363281-7.515625-7.515625-7.515625h-16.53125v-48.59375c0-26.796875 21.796875-48.59375 48.59375-48.59375h77.152344c4.148437 0 7.511718-3.367188 7.511718-7.515625 0-4.152344-3.363281-7.515625-7.511718-7.515625h-77.152344c-35.082031 0-63.625 28.542969-63.625 63.625v48.59375h-33.0625v-48.59375c0-53.316406 43.375-96.6875 96.6875-96.6875h168.328125c4.152344 0 7.515625-3.367188 7.515625-7.515625 0-4.152344-3.363281-7.515625-7.515625-7.515625h-168.328125c-61.601562 0-111.71875 50.117188-111.71875 111.71875v48.59375h-16.53125c-4.152344 0-7.515625 3.363281-7.515625 7.515625v24.546875h-56.609375c-48.34375 0-87.671875 39.328125-87.671875 87.671875v8.515625h-16.53125c-4.152344 0-7.515625 3.367188-7.515625 7.515625v32.0625c0 4.148437 3.363281 7.515625 7.515625 7.515625h432.84375c4.152344 0 7.515625-3.367188 7.515625-7.515625v-32.0625c0-4.148437-3.363281-7.515625-7.515625-7.515625zm-257-113.21875h81.15625v17.03125h-81.15625zm-144.28125 104.703125c0-40.054687 32.585937-72.640625 72.640625-72.640625h224.4375c40.054688 0 72.640625 32.585938 72.640625 72.640625v8.515625h-369.71875zm393.765625 40.578125h-417.8125v-17.03125h417.8125zm0 0" data-original="#000000" class="active-path" data-old_color="#cecccc" fill="#cecccc"/><path d="m223.9375 344.671875c-4.148438 0-7.515625 3.367187-7.515625 7.515625v8.015625c0 4.152344 3.367187 7.515625 7.515625 7.515625 4.152344 0 7.515625-3.363281 7.515625-7.515625v-8.015625c0-4.148438-3.363281-7.515625-7.515625-7.515625zm0 0" data-original="#000000" class="active-path" data-old_color="#cecccc" fill="#cecccc"/><path d="m223.9375 386.753906c-4.148438 0-7.515625 3.367188-7.515625 7.515625v17.035157c0 4.148437 3.367187 7.511718 7.515625 7.511718 4.152344 0 7.515625-3.363281 7.515625-7.511718v-17.035157c0-4.148437-3.363281-7.515625-7.515625-7.515625zm0 0" data-original="#000000" class="active-path" data-old_color="#cecccc" fill="#cecccc"/><path d="m223.9375 437.855469c-4.148438 0-7.515625 3.363281-7.515625 7.515625v17.03125c0 4.152344 3.367187 7.515625 7.515625 7.515625 4.152344 0 7.515625-3.363281 7.515625-7.515625v-17.03125c0-4.152344-3.363281-7.515625-7.515625-7.515625zm0 0" data-original="#000000" class="active-path" data-old_color="#cecccc" fill="#cecccc"/><path d="m223.9375 488.953125c-4.148438 0-7.515625 3.367187-7.515625 7.515625v8.015625c0 4.152344 3.367187 7.515625 7.515625 7.515625 4.152344 0 7.515625-3.363281 7.515625-7.515625v-8.015625c0-4.148438-3.363281-7.515625-7.515625-7.515625zm0 0" data-original="#000000" class="active-path" data-old_color="#cecccc" fill="#cecccc"/><path d="m288.0625 344.671875c-4.152344 0-7.515625 3.367187-7.515625 7.515625v8.015625c0 4.152344 3.363281 7.515625 7.515625 7.515625s7.515625-3.363281 7.515625-7.515625v-8.015625c0-4.148438-3.363281-7.515625-7.515625-7.515625zm0 0" data-original="#000000" class="active-path" data-old_color="#cecccc" fill="#cecccc"/><path d="m288.0625 437.855469c-4.152344 0-7.515625 3.363281-7.515625 7.515625v17.03125c0 4.152344 3.363281 7.515625 7.515625 7.515625s7.515625-3.363281 7.515625-7.515625v-17.03125c0-4.152344-3.363281-7.515625-7.515625-7.515625zm0 0" data-original="#000000" class="active-path" data-old_color="#cecccc" fill="#cecccc"/><path d="m288.0625 386.753906c-4.152344 0-7.515625 3.367188-7.515625 7.515625v17.035157c0 4.148437 3.363281 7.511718 7.515625 7.511718s7.515625-3.363281 7.515625-7.511718v-17.035157c0-4.148437-3.363281-7.515625-7.515625-7.515625zm0 0" data-original="#000000" class="active-path" data-old_color="#cecccc" fill="#cecccc"/><path d="m288.0625 488.953125c-4.152344 0-7.515625 3.367187-7.515625 7.515625v8.015625c0 4.152344 3.363281 7.515625 7.515625 7.515625s7.515625-3.363281 7.515625-7.515625v-8.015625c0-4.148438-3.363281-7.515625-7.515625-7.515625zm0 0" data-original="#000000" class="active-path" data-old_color="#cecccc" fill="#cecccc"/><path d="m352.1875 344.671875c-4.152344 0-7.515625 3.367187-7.515625 7.515625v8.015625c0 4.152344 3.363281 7.515625 7.515625 7.515625s7.515625-3.363281 7.515625-7.515625v-8.015625c0-4.148438-3.363281-7.515625-7.515625-7.515625zm0 0" data-original="#000000" class="active-path" data-old_color="#cecccc" fill="#cecccc"/><path d="m352.1875 437.855469c-4.152344 0-7.515625 3.363281-7.515625 7.515625v17.03125c0 4.152344 3.363281 7.515625 7.515625 7.515625s7.515625-3.363281 7.515625-7.515625v-17.03125c0-4.152344-3.363281-7.515625-7.515625-7.515625zm0 0" data-original="#000000" class="active-path" data-old_color="#cecccc" fill="#cecccc"/><path d="m352.1875 386.753906c-4.152344 0-7.515625 3.367188-7.515625 7.515625v17.035157c0 4.148437 3.363281 7.511718 7.515625 7.511718s7.515625-3.363281 7.515625-7.511718v-17.035157c0-4.148437-3.363281-7.515625-7.515625-7.515625zm0 0" data-original="#000000" class="active-path" data-old_color="#cecccc" fill="#cecccc"/><path d="m352.1875 488.953125c-4.152344 0-7.515625 3.367187-7.515625 7.515625v8.015625c0 4.152344 3.363281 7.515625 7.515625 7.515625s7.515625-3.363281 7.515625-7.515625v-8.015625c0-4.148438-3.363281-7.515625-7.515625-7.515625zm0 0" data-original="#000000" class="active-path" data-old_color="#cecccc" fill="#cecccc"/><path d="m95.6875 344.671875c-4.152344 0-7.515625 3.367187-7.515625 7.515625v8.015625c0 4.152344 3.363281 7.515625 7.515625 7.515625 4.148438 0 7.515625-3.363281 7.515625-7.515625v-8.015625c0-4.148438-3.367187-7.515625-7.515625-7.515625zm0 0" data-original="#000000" class="active-path" data-old_color="#cecccc" fill="#cecccc"/><path d="m95.6875 437.855469c-4.152344 0-7.515625 3.363281-7.515625 7.515625v17.03125c0 4.152344 3.363281 7.515625 7.515625 7.515625 4.148438 0 7.515625-3.363281 7.515625-7.515625v-17.03125c0-4.152344-3.367187-7.515625-7.515625-7.515625zm0 0" data-original="#000000" class="active-path" data-old_color="#cecccc" fill="#cecccc"/><path d="m95.6875 386.753906c-4.152344 0-7.515625 3.367188-7.515625 7.515625v17.035157c0 4.148437 3.363281 7.511718 7.515625 7.511718 4.148438 0 7.515625-3.363281 7.515625-7.511718v-17.035157c0-4.148437-3.367187-7.515625-7.515625-7.515625zm0 0" data-original="#000000" class="active-path" data-old_color="#cecccc" fill="#cecccc"/><path d="m95.6875 488.953125c-4.152344 0-7.515625 3.367187-7.515625 7.515625v8.015625c0 4.152344 3.363281 7.515625 7.515625 7.515625 4.148438 0 7.515625-3.363281 7.515625-7.515625v-8.015625c0-4.148438-3.367187-7.515625-7.515625-7.515625zm0 0" data-original="#000000" class="active-path" data-old_color="#cecccc" fill="#cecccc"/><path d="m159.8125 344.671875c-4.152344 0-7.515625 3.367187-7.515625 7.515625v8.015625c0 4.152344 3.363281 7.515625 7.515625 7.515625 4.148438 0 7.515625-3.363281 7.515625-7.515625v-8.015625c0-4.148438-3.367187-7.515625-7.515625-7.515625zm0 0" data-original="#000000" class="active-path" data-old_color="#cecccc" fill="#cecccc"/><path d="m159.8125 437.855469c-4.152344 0-7.515625 3.363281-7.515625 7.515625v17.03125c0 4.152344 3.363281 7.515625 7.515625 7.515625 4.148438 0 7.515625-3.363281 7.515625-7.515625v-17.03125c0-4.152344-3.367187-7.515625-7.515625-7.515625zm0 0" data-original="#000000" class="active-path" data-old_color="#cecccc" fill="#cecccc"/><path d="m159.8125 386.753906c-4.152344 0-7.515625 3.367188-7.515625 7.515625v17.035157c0 4.148437 3.363281 7.511718 7.515625 7.511718 4.148438 0 7.515625-3.363281 7.515625-7.511718v-17.035157c0-4.148437-3.367187-7.515625-7.515625-7.515625zm0 0" data-original="#000000" class="active-path" data-old_color="#cecccc" fill="#cecccc"/><path d="m159.8125 488.953125c-4.152344 0-7.515625 3.367187-7.515625 7.515625v8.015625c0 4.152344 3.363281 7.515625 7.515625 7.515625 4.148438 0 7.515625-3.363281 7.515625-7.515625v-8.015625c0-4.148438-3.367187-7.515625-7.515625-7.515625zm0 0" data-original="#000000" class="active-path" data-old_color="#cecccc" fill="#cecccc"/></g> </svg>
